<svg width="2303" height="781" viewBox="0 0 2303 781" fill="none" xmlns="http://www.w3.org/2000/svg">
<path opacity="0.82" d="M172.743 729.431C68.3671 711.972 -1.72993 641.883 0.0324883 567C0.23938 558.209 1.43654 549.353 3.68477 540.508C26.1546 453.233 142.784 394.708 263.693 411.136C257.273 355.691 308.632 304.353 382.462 293.059C455.221 281.764 530.121 312.567 554.731 364.932C550.451 349.53 532.261 271.497 598.6 195.517C663.87 121.59 765.519 102.081 786.919 97.9744C799.759 44.583 858.608 5.56612 926.018 0.432323C1004.13 -4.70147 1080.1 36.3689 1096.15 97.9744C1209.57 68.1984 1335.82 92.8406 1407.51 159.58C1468.5 216.052 1481.34 294.085 1442.82 361.851C1488.83 305.38 1578.71 275.604 1666.45 287.925C1756.33 300.246 1826.95 353.637 1840.86 421.404C1845.14 419.35 1938.23 382.387 2029.18 421.404C2093.38 449.126 2129.76 503.544 2120.13 560.016C2154.37 525.106 2212.15 513.812 2252.81 529.213C2294.54 544.615 2311.66 591.846 2298.82 625.729C2248.53 755.1 1715.67 770.502 1715.67 770.502C1715.67 770.502 1377.55 782.823 1024.46 780.769C690.62 778.716 523.701 766.395 452.011 760.234C336.452 749.966 240.153 738.672 172.743 729.431Z" fill="url(#paint0_linear)"/>
<path d="M1205 242L1058 319V701L1131.5 662.5L1205 624V242Z" fill="#153D74" stroke="#153D74"/>
<path d="M1057.5 319.5L872 222V604L1057.5 701.5V319.5Z" fill="#11345A" stroke="#11345A"/>
<path d="M998.48 358.02L887 297V317.801L998.48 378.821V358.02Z" fill="#80B802"/>
<path d="M1037.98 380.37L1020.86 371V391.801L1037.98 401.172V380.37Z" fill="#80B802"/>
<path d="M998.48 358.02L887 297V317.801L998.48 378.821V358.02Z" stroke="#11345A"/>
<path d="M1037.98 380.37L1020.86 371V391.801L1037.98 401.172V380.37Z" stroke="#11345A"/>
<path d="M998.48 401.02L887 340V360.801L998.48 421.821V401.02Z" fill="#80B802"/>
<path d="M1037.98 423.37L1020.86 414V434.801L1037.98 444.172V423.37Z" fill="#80B802"/>
<path d="M998.48 401.02L887 340V360.801L998.48 421.821V401.02Z" stroke="#11345A"/>
<path d="M1037.98 423.37L1020.86 414V434.801L1037.98 444.172V423.37Z" stroke="#11345A"/>
<path d="M998.48 442.02L887 381V401.801L998.48 462.821V442.02Z" fill="#80B802"/>
<path d="M1037.98 464.37L1020.86 455V475.801L1037.98 485.172V464.37Z" fill="#80B802"/>
<path d="M998.48 442.02L887 381V401.801L998.48 462.821V442.02Z" stroke="#11345A"/>
<path d="M1037.98 464.37L1020.86 455V475.801L1037.98 485.172V464.37Z" stroke="#11345A"/>
<path d="M998.48 481.02L887 420V440.801L998.48 501.821V481.02Z" fill="#80B802"/>
<path d="M1037.98 503.37L1020.86 494V514.801L1037.98 524.172V503.37Z" fill="#80B802"/>
<path d="M998.48 481.02L887 420V440.801L998.48 501.821V481.02Z" stroke="#11345A"/>
<path d="M1037.98 503.37L1020.86 494V514.801L1037.98 524.172V503.37Z" stroke="#11345A"/>
<path d="M998.48 523.02L887 462V482.801L998.48 543.821V523.02Z" fill="#80B802"/>
<path d="M1037.98 545.37L1020.86 536V556.801L1037.98 566.172V545.37Z" fill="#80B802"/>
<path d="M998.48 523.02L887 462V482.801L998.48 543.821V523.02Z" stroke="#11345A"/>
<path d="M1037.98 545.37L1020.86 536V556.801L1037.98 566.172V545.37Z" stroke="#11345A"/>
<path d="M1019 144L872 221L1057.5 318.5L1204.5 241.5L1019 144Z" fill="#153F67" stroke="#153F67"/>
<path d="M1159.99 454.412C1158.99 450.736 1157.28 447.293 1154.96 444.278C1152.63 441.264 1149.73 438.737 1146.43 436.843C1143.12 434.948 1139.48 433.723 1135.7 433.237C1131.92 432.751 1128.09 433.014 1124.41 434.01L1132 462L1159.99 454.412Z" fill="#302323"/>
<path d="M1104.48 471.142C1105.68 474.756 1107.58 478.098 1110.07 480.978C1112.56 483.858 1115.6 486.218 1119 487.925C1122.41 489.632 1126.12 490.651 1129.91 490.925C1133.71 491.199 1137.53 490.722 1141.14 489.521L1132 462L1104.48 471.142Z" fill="#302323"/>
<path d="M1159.98 454.372C1161.13 458.61 1161.31 463.056 1160.5 467.374C1159.68 471.691 1157.9 475.767 1155.28 479.294C1152.66 482.821 1149.27 485.706 1145.37 487.732C1141.48 489.758 1137.17 490.872 1132.78 490.99L1132 462L1159.98 454.372Z" fill="#8397B4"/>
<path d="M1104.68 471.722C1103.13 467.384 1102.65 462.742 1103.25 458.178C1103.86 453.614 1105.54 449.261 1108.17 445.477C1110.79 441.694 1114.28 438.589 1118.34 436.42C1122.4 434.251 1126.92 433.08 1131.52 433.004L1132 462L1104.68 471.722Z" fill="#8397B4"/>
<path d="M909 456.451L812.324 507.09V758.316L860.662 732.996L909 707.676V456.451Z" fill="#153D74" stroke="#153D74"/>
<path d="M811.995 507.419L690 443.297V694.523L811.995 758.644V507.419Z" fill="#11345A" stroke="#11345A"/>
<path d="M773.181 532.752L699.865 492.622V506.302L773.181 546.432V532.752Z" fill="#80B802"/>
<path d="M799.158 547.451L787.899 541.288V554.968L799.158 561.131V547.451Z" fill="#80B802"/>
<path d="M773.181 532.752L699.865 492.622V506.302L773.181 546.432V532.752Z" stroke="#11345A"/>
<path d="M799.158 547.451L787.899 541.288V554.968L799.158 561.131V547.451Z" stroke="#11345A"/>
<path d="M773.181 561.031L699.865 520.901V534.581L773.181 574.711V561.031Z" fill="#80B802"/>
<path d="M799.158 575.73L787.899 569.567V583.248L799.158 589.41V575.73Z" fill="#80B802"/>
<path d="M773.181 561.031L699.865 520.901V534.581L773.181 574.711V561.031Z" stroke="#11345A"/>
<path d="M799.158 575.73L787.899 569.567V583.248L799.158 589.41V575.73Z" stroke="#11345A"/>
<path d="M773.181 587.995L699.865 547.865V561.545L773.181 601.675V587.995Z" fill="#80B802"/>
<path d="M799.158 602.694L787.899 596.531V610.212L799.158 616.374V602.694Z" fill="#80B802"/>
<path d="M773.181 587.995L699.865 547.865V561.545L773.181 601.675V587.995Z" stroke="#11345A"/>
<path d="M799.158 602.694L787.899 596.531V610.212L799.158 616.374V602.694Z" stroke="#11345A"/>
<path d="M773.181 613.644L699.865 573.514V587.194L773.181 627.324V613.644Z" fill="#80B802"/>
<path d="M799.158 628.343L787.899 622.18V635.86L799.158 642.023V628.343Z" fill="#80B802"/>
<path d="M773.181 613.644L699.865 573.514V587.194L773.181 627.324V613.644Z" stroke="#11345A"/>
<path d="M799.158 628.343L787.899 622.18V635.86L799.158 642.023V628.343Z" stroke="#11345A"/>
<path d="M773.181 641.265L699.865 601.135V614.815L773.181 654.946V641.265Z" fill="#80B802"/>
<path d="M799.158 655.964L787.899 649.802V663.482L799.158 669.645V655.964Z" fill="#80B802"/>
<path d="M773.181 641.265L699.865 601.135V614.815L773.181 654.946V641.265Z" stroke="#11345A"/>
<path d="M799.158 655.964L787.899 649.802V663.482L799.158 669.645V655.964Z" stroke="#11345A"/>
<path d="M786.676 392L690 442.64L811.995 506.761L908.671 456.122L786.676 392Z" fill="#153F67" stroke="#153F67"/>
<path d="M879.399 596.144C878.743 593.727 877.618 591.463 876.088 589.48C874.557 587.498 872.651 585.836 870.478 584.59C868.306 583.344 865.909 582.538 863.425 582.219C860.94 581.899 858.418 582.072 856 582.728L860.991 601.135L879.399 596.144Z" fill="#302323"/>
<path d="M842.891 607.147C843.681 609.524 844.931 611.722 846.57 613.616C848.209 615.51 850.205 617.062 852.444 618.185C854.683 619.307 857.121 619.978 859.619 620.158C862.117 620.338 864.626 620.024 867.003 619.235L860.991 601.135L842.891 607.147Z" fill="#302323"/>
<path d="M879.391 596.118C880.151 598.906 880.268 601.83 879.733 604.669C879.197 607.508 878.024 610.189 876.301 612.508C874.578 614.828 872.35 616.725 869.786 618.058C867.223 619.39 864.39 620.123 861.501 620.2L860.991 601.135L879.391 596.118Z" fill="#8397B4"/>
<path d="M843.022 607.528C842.008 604.676 841.686 601.623 842.085 598.621C842.484 595.62 843.592 592.757 845.317 590.269C847.042 587.78 849.335 585.739 852.006 584.312C854.676 582.886 857.648 582.116 860.676 582.066L860.991 601.135L843.022 607.528Z" fill="#8397B4"/>
<path d="M7 575H462.897M462.897 575V378H798M462.897 575H620.22" stroke="white" stroke-width="6"/>
<circle cx="617.5" cy="574.5" r="10.5" fill="white"/>
<circle cx="799.5" cy="377.5" r="10.5" fill="white"/>
<path d="M2298.5 612H1716M1601.1 612V415H1266M1601.1 612H1443.78M1601.1 612H1716M1716 612V682H1575" stroke="white" stroke-width="6"/>
<circle r="10.5" transform="matrix(-1 0 0 1 1446.5 611.5)" fill="white"/>
<circle r="10.5" transform="matrix(-1 0 0 1 1581.5 681.5)" fill="white"/>
<circle r="10.5" transform="matrix(-1 0 0 1 1264.5 414.5)" fill="white"/>
<defs>
<linearGradient id="paint0_linear" x1="1150.5" y1="-0.553366" x2="1150.5" y2="780.461" gradientUnits="userSpaceOnUse">
<stop stop-color="#BA9BC9"/>
<stop offset="0.9949" stop-color="#F4F3B4"/>
</linearGradient>
</defs>
</svg>
